<?xml version="1.0" encoding="utf-8"?>
<!-- Generator: Adobe Illustrator 23.0.1, SVG Export Plug-In . SVG Version: 6.00 Build 0)  -->
<svg version="1.1" id="Layer_1" xmlns="http://www.w3.org/2000/svg" xmlns:xlink="http://www.w3.org/1999/xlink" x="0px" y="0px"
	 viewBox="0 0 1454.44 934.22" style="enable-background:new 0 0 1454.44 934.22;" xml:space="preserve">
<style type="text/css">
	.st0{clip-path:url(#SVGID_2_);}
	.st1{fill:url(#SVGID_3_);}
	.st2{fill:#E75E24;}
	.st3{clip-path:url(#SVGID_5_);}
	.st4{fill:url(#SVGID_6_);}
	.st5{fill:#FFFFFF;}
</style>
<g>
	<defs>
		<path id="SVGID_1_" d="M170.15,920.39c0.67,8.31,7.94,14.5,16.25,13.84c7.38-0.59,13.24-6.45,13.84-13.84
			c0.67-8.31-5.53-15.58-13.84-16.25s-15.58,5.53-16.25,13.84C170.08,918.77,170.08,919.58,170.15,920.39 M3.26,918.35
			c0,8.34,6.76,15.09,15.09,15.09c8.34,0,15.09-6.76,15.09-15.09c0-8.34-6.76-15.09-15.09-15.09c0,0,0,0,0,0
			c-8.28-0.05-15.04,6.62-15.09,14.9C3.26,918.22,3.26,918.29,3.26,918.35 M286.53,901.04c-0.05,8.34,6.66,15.14,15,15.19
			c8.34,0.05,15.14-6.66,15.19-15c0.05-8.33-6.66-15.14-15-15.19c-0.06,0-0.13,0-0.19,0C293.24,886.04,286.53,892.75,286.53,901.04
			L286.53,901.04 M137.25,873.27c0.67,8.31,7.94,14.5,16.25,13.84c7.38-0.59,13.24-6.45,13.84-13.84
			c0.67-8.31-5.53-15.58-13.84-16.25s-15.58,5.53-16.25,13.84C137.19,871.66,137.19,872.47,137.25,873.27 M265.44,861.37
			c-0.05,8.34,6.66,15.14,15,15.19c8.34,0.05,15.14-6.66,15.19-15c0.05-8.33-6.66-15.14-15-15.19c-0.06,0-0.13,0-0.19,0
			C272.15,846.38,265.44,853.09,265.44,861.37L265.44,861.37 M368.47,861.37c-0.05,8.34,6.66,15.14,15,15.19
			c8.34,0.05,15.14-6.66,15.19-15c0.05-8.33-6.66-15.14-15-15.19c-0.06,0-0.13,0-0.19,0C375.19,846.38,368.47,853.09,368.47,861.37
			L368.47,861.37 M419.94,861.37c-0.67,8.31,5.53,15.58,13.84,16.25c8.31,0.67,15.58-5.53,16.25-13.84c0.06-0.8,0.06-1.61,0-2.41
			c-0.67-8.31-7.94-14.5-16.25-13.84C426.4,848.13,420.53,853.99,419.94,861.37 M162.41,813.97c0,8.34,6.76,15.09,15.09,15.09
			s15.09-6.76,15.09-15.09c0-8.34-6.76-15.09-15.09-15.09c-0.03,0-0.06,0-0.1,0c-8.28,0-15,6.71-15,15
			C162.41,813.9,162.41,813.93,162.41,813.97 M213.88,813.97c0,8.34,6.76,15.09,15.09,15.09c8.34,0,15.09-6.76,15.09-15.09
			c0-8.34-6.76-15.09-15.09-15.09c0,0,0,0,0,0c-8.28-0.05-15.04,6.62-15.09,14.9C213.87,813.84,213.87,813.9,213.88,813.97
			 M265.44,813.97c0.67,8.31,7.94,14.5,16.25,13.84c7.38-0.59,13.24-6.45,13.84-13.84c0.67-8.31-5.53-15.58-13.84-16.25
			c-8.31-0.67-15.58,5.53-16.25,13.84C265.38,812.35,265.38,813.16,265.44,813.97 M316.91,813.97c0,8.34,6.76,15.09,15.09,15.09
			s15.09-6.76,15.09-15.09c0-8.26-6.64-14.98-14.9-15.09c-8.28-0.16-15.12,6.42-15.28,14.7
			C316.91,813.71,316.91,813.84,316.91,813.97 M368.47,813.97c0.67,8.31,7.94,14.5,16.25,13.84c7.38-0.59,13.24-6.45,13.84-13.84
			c0.67-8.31-5.53-15.58-13.84-16.25c-8.31-0.67-15.58,5.53-16.25,13.84C368.41,812.35,368.41,813.16,368.47,813.97 M419.94,813.97
			c0,8.34,6.76,15.09,15.09,15.09c8.34,0,15.09-6.76,15.09-15.09c0-8.34-6.76-15.09-15.09-15.09c0,0,0,0,0,0
			c-8.28-0.05-15.04,6.62-15.09,14.9C419.94,813.84,419.94,813.9,419.94,813.97 M471.41,813.97c0,8.34,6.76,15.09,15.09,15.09
			c8.34,0,15.09-6.76,15.09-15.09c0-8.34-6.76-15.09-15.09-15.09c0,0,0,0,0,0c-8.28-0.05-15.04,6.62-15.09,14.9
			C471.41,813.84,471.41,813.9,471.41,813.97 M265.44,766.56c0.67,8.31,7.94,14.5,16.25,13.84c7.38-0.59,13.24-6.45,13.84-13.84
			c0.67-8.31-5.53-15.58-13.84-16.25c-8.31-0.67-15.58,5.53-16.25,13.84C265.38,764.95,265.38,765.76,265.44,766.56 M316.91,766.56
			c0,8.34,6.76,15.09,15.09,15.09s15.09-6.76,15.09-15.09c0-8.26-6.64-14.98-14.9-15.09c-8.28-0.05-15.04,6.62-15.09,14.9
			c0,0.06,0,0.13,0,0.19 M368.67,766.56c0.67,8.31,7.94,14.5,16.25,13.84c7.38-0.59,13.24-6.45,13.84-13.84
			c0.67-8.31-5.53-15.58-13.84-16.25c-8.31-0.67-15.58,5.53-16.25,13.84C368.6,764.95,368.6,765.76,368.67,766.56 M420.14,766.56
			c0,8.34,6.76,15.09,15.09,15.09c8.34,0,15.09-6.76,15.09-15.09c0-8.34-6.76-15.09-15.09-15.09c0,0,0,0,0,0
			c-8.28-0.05-15.04,6.62-15.09,14.9C420.14,766.43,420.14,766.5,420.14,766.56 M471.6,766.56c0,8.34,6.76,15.09,15.09,15.09
			c8.34,0,15.09-6.76,15.09-15.09c0-8.34-6.76-15.09-15.09-15.09c0,0,0,0,0,0c-8.28-0.05-15.04,6.62-15.09,14.9
			C471.6,766.43,471.6,766.5,471.6,766.56 M523.17,766.56c0,8.34,6.76,15.09,15.09,15.09c8.34,0,15.09-6.76,15.09-15.09
			c0-8.34-6.76-15.09-15.09-15.09c0,0,0,0,0,0c-8.28-0.05-15.04,6.62-15.09,14.9C523.17,766.43,523.17,766.5,523.17,766.56
			 M138.7,760.66c-0.05,8.34,6.66,15.14,15,15.19c8.33,0.05,15.14-6.66,15.19-15c0.05-8.34-6.66-15.14-15-15.19
			c-0.03,0-0.06,0-0.1,0C145.5,745.66,138.76,752.36,138.7,760.66 M231,728.83c0.02,8.34,6.79,15.08,15.12,15.06
			c8.34-0.02,15.08-6.79,15.06-15.12c-0.02-8.34-6.79-15.08-15.12-15.06c-0.31,0-0.62,0.01-0.94,0.03c-8.28,0-15,6.71-15,15
			c0,0.03,0,0.06,0,0.1 M368.09,719.16c-0.05,8.34,6.66,15.14,15,15.19c8.34,0.05,15.14-6.66,15.19-15
			c0.05-8.33-6.66-15.14-15-15.19c-0.06,0-0.13,0-0.19,0C374.8,704.16,368.09,710.87,368.09,719.16L368.09,719.16 M419.56,719.16
			c-0.67,8.31,5.53,15.58,13.84,16.25c8.31,0.67,15.58-5.53,16.25-13.84c0.06-0.8,0.06-1.61,0-2.41
			c-0.67-8.31-7.94-14.5-16.25-13.84C426.01,705.91,420.15,711.77,419.56,719.16 M471.02,719.16c-0.67,8.31,5.53,15.58,13.84,16.25
			c8.31,0.67,15.58-5.53,16.25-13.84c0.06-0.8,0.06-1.61,0-2.41c-0.67-8.31-7.94-14.5-16.25-13.84
			C477.48,705.91,471.62,711.77,471.02,719.16 M522.59,719.16c-0.05,8.34,6.66,15.14,15,15.19c8.33,0.05,15.14-6.66,15.19-15
			c0.05-8.34-6.66-15.14-15-15.19c-0.03,0-0.06,0-0.1,0C529.38,704.16,522.64,710.86,522.59,719.16 M574.06,719.16
			c-0.67,8.31,5.53,15.58,13.84,16.25s15.58-5.53,16.25-13.84c0.06-0.8,0.06-1.61,0-2.41c-0.67-8.31-7.94-14.5-16.25-13.84
			C580.51,705.91,574.65,711.77,574.06,719.16 M308.98,717.7c0,8.34,6.76,15.09,15.09,15.09c8.34,0,15.09-6.76,15.09-15.09
			c0-8.34-6.76-15.09-15.09-15.09c0,0,0,0,0,0C315.73,702.61,308.98,709.37,308.98,717.7 M356.38,677.75
			c-0.05,8.34,6.66,15.14,15,15.19c8.34,0.05,15.14-6.66,15.19-15c0.05-8.34-6.66-15.14-15-15.19c-0.06,0-0.13,0-0.19,0
			C363.09,662.75,356.38,669.47,356.38,677.75L356.38,677.75 M283.82,673.59c0,8.34,6.76,15.09,15.09,15.09
			c8.34,0,15.09-6.76,15.09-15.09c0-8.34-6.76-15.09-15.09-15.09c0,0,0,0,0,0c-8.28-0.05-15.04,6.62-15.09,14.9
			C283.82,673.46,283.82,673.52,283.82,673.59 M419.85,671.65c0,8.34,6.76,15.09,15.09,15.09c8.34,0,15.09-6.76,15.09-15.09
			c0-8.34-6.76-15.09-15.09-15.09c0,0,0,0,0,0C426.6,656.56,419.85,663.32,419.85,671.65 M471.31,671.65
			c0.01,8.34,6.77,15.09,15.1,15.08s15.09-6.77,15.08-15.1c-0.01-8.11-6.41-14.76-14.51-15.07c-8.34,0-15.09,6.76-15.09,15.09
			 M523.46,671.65c0,8.34,6.76,15.09,15.09,15.09c8.34,0,15.09-6.76,15.09-15.09c0-8.34-6.76-15.09-15.09-15.09c0,0,0,0,0,0
			C530.22,656.56,523.46,663.32,523.46,671.65 M574.93,671.65c0,8.34,6.76,15.09,15.09,15.09c8.34,0,15.09-6.76,15.09-15.09
			c0-8.34-6.76-15.09-15.09-15.09c0,0,0,0,0,0c-8.32-0.48-15.46,5.88-15.94,14.2c-0.02,0.3-0.03,0.6-0.03,0.9 M625.53,671.65
			c0,8.34,6.76,15.09,15.09,15.09c8.34,0,15.09-6.76,15.09-15.09s-6.76-15.09-15.09-15.09l0,0
			C632.28,656.56,625.53,663.32,625.53,671.65 M349.03,630.15c0,8.34,6.76,15.09,15.09,15.09c8.34,0,15.09-6.76,15.09-15.09
			c0-8.34-6.76-15.09-15.09-15.09c0,0,0,0,0,0c-8.28-0.05-15.04,6.62-15.09,14.9C349.03,630.02,349.03,630.09,349.03,630.15
			 M419.94,624.35c0,8.34,6.76,15.09,15.09,15.09c8.34,0,15.09-6.76,15.09-15.09c0-8.34-6.76-15.09-15.09-15.09c0,0,0,0,0,0
			c-8.28-0.05-15.04,6.62-15.09,14.9C419.94,624.22,419.94,624.28,419.94,624.35 M471.41,624.35c0.06,8.33,6.86,15.05,15.2,14.99
			c8.34-0.06,15.05-6.86,14.99-15.2c-0.06-8.11-6.51-14.72-14.61-14.98c-8.28-0.05-15.04,6.62-15.09,14.9c0,0.06,0,0.13,0,0.19
			 M523.46,624.25c0,8.34,6.76,15.09,15.09,15.09c8.34,0,15.09-6.76,15.09-15.09c0-8.34-6.76-15.09-15.09-15.09c0,0,0,0,0,0
			c-8.28-0.05-15.04,6.62-15.09,14.9C523.46,624.12,523.46,624.18,523.46,624.25 M574.93,624.25c0,8.34,6.76,15.09,15.09,15.09
			c8.34,0,15.09-6.76,15.09-15.09c0-8.34-6.76-15.09-15.09-15.09c0,0,0,0,0,0c-8.26-0.53-15.4,5.73-15.93,14
			c-0.02,0.36-0.03,0.73-0.03,1.1 M625.53,624.25c0,8.34,6.76,15.09,15.09,15.09c8.34,0,15.09-6.76,15.09-15.09
			s-6.76-15.09-15.09-15.09l0,0c-8.28-0.05-15.04,6.62-15.09,14.9C625.52,624.12,625.52,624.18,625.53,624.25 M677.09,624.25
			c0,8.34,6.76,15.09,15.09,15.09c8.34,0,15.09-6.76,15.09-15.09s-6.76-15.09-15.09-15.09l0,0c-8.28-0.05-15.04,6.62-15.09,14.9
			C677.09,624.12,677.09,624.18,677.09,624.25 M419.56,576.75c-0.67,8.31,5.53,15.58,13.84,16.25c8.31,0.67,15.58-5.53,16.25-13.84
			c0.06-0.8,0.06-1.61,0-2.41c-0.67-8.31-7.94-14.5-16.25-13.84C426.01,563.5,420.15,569.36,419.56,576.75 M471.02,576.75
			c-0.67,8.31,5.53,15.58,13.84,16.25c8.31,0.67,15.58-5.53,16.25-13.84c0.06-0.8,0.06-1.61,0-2.41
			c-0.67-8.31-7.94-14.5-16.25-13.84C477.48,563.5,471.62,569.36,471.02,576.75 M522.59,576.75c-0.05,8.34,6.66,15.14,15,15.19
			s15.14-6.66,15.19-15c0.05-8.34-6.66-15.14-15-15.19c-0.03,0-0.06,0-0.1,0C529.38,561.75,522.64,568.45,522.59,576.75
			 M574.06,576.75c-0.67,8.31,5.53,15.58,13.84,16.25c8.31,0.67,15.58-5.53,16.25-13.84c0.06-0.8,0.06-1.61,0-2.41
			c-0.67-8.31-7.94-14.5-16.25-13.84C580.51,563.5,574.65,569.36,574.06,576.75 M625.53,576.75c-0.05,8.34,6.66,15.14,15,15.19
			s15.14-6.66,15.19-15c0.05-8.34-6.66-15.14-15-15.19c-0.03,0-0.06,0-0.1,0C632.32,561.75,625.58,568.45,625.53,576.75
			 M677.09,576.75c-0.05,8.34,6.66,15.14,15,15.19c8.34,0.05,15.14-6.66,15.19-15c0.05-8.34-6.66-15.14-15-15.19
			c-0.03,0-0.06,0-0.1,0C683.88,561.75,677.14,568.45,677.09,576.75 M728.56,576.75c-0.67,8.31,5.53,15.58,13.84,16.25
			c8.31,0.67,15.58-5.53,16.25-13.84c0.06-0.8,0.06-1.61,0-2.41c-0.67-8.31-7.94-14.5-16.25-13.84
			C735.01,563.5,729.15,569.36,728.56,576.75 M471.02,529.34c0.12,8.33,6.97,14.99,15.31,14.87c8.33-0.12,14.99-6.97,14.87-15.31
			c-0.11-7.91-6.32-14.39-14.22-14.85c-8.34,0-15.09,6.76-15.09,15.09 M523.46,529.15c0,8.34,6.76,15.09,15.1,15.08
			c8.34,0,15.09-6.76,15.08-15.1c0-8.34-6.76-15.09-15.1-15.08c-0.16,0-0.32,0-0.48,0.01c-8.34,0-15.09,6.76-15.09,15.09
			 M574.44,529.15c0,8.34,6.76,15.09,15.09,15.09c8.34,0,15.09-6.76,15.09-15.09c0-8.34-6.76-15.09-15.09-15.09c0,0,0,0,0,0
			c-8.33-0.21-15.26,6.37-15.48,14.7c-0.01,0.2-0.01,0.39,0,0.59 M625.53,529.34c0.11,8.33,6.95,15,15.29,14.89
			c8.33-0.11,15-6.95,14.89-15.29c-0.11-8.11-6.6-14.68-14.7-14.89c-8.34,0-15.09,6.76-15.09,15.09 M677.48,529.15
			c0,8.34,6.76,15.09,15.09,15.09c8.34,0,15.09-6.76,15.09-15.09s-6.76-15.09-15.09-15.09l0,0
			C684.23,514.06,677.48,520.81,677.48,529.15 M728.95,529.15c0,8.34,6.76,15.09,15.09,15.09c8.34,0,15.09-6.76,15.09-15.09
			s-6.76-15.09-15.09-15.09l0,0c-8.34-0.05-15.14,6.66-15.19,14.99c0,0.1,0,0.19,0,0.29 M780.41,529.34
			c0.11,8.33,6.95,15,15.28,14.9c8.33-0.11,15-6.95,14.9-15.28c-0.11-8.26-6.83-14.9-15.09-14.9c-8.28,0-15,6.71-15,15
			c0,0.03,0,0.06,0,0.1"/>
	</defs>
	<clipPath id="SVGID_2_">
		<use xlink:href="#SVGID_1_"  style="overflow:visible;"/>
	</clipPath>
	<g class="st0">
		
			<linearGradient id="SVGID_3_" gradientUnits="userSpaceOnUse" x1="-404.2339" y1="2702.562" x2="-394.5594" y2="2702.562" gradientTransform="matrix(62.4729 -62.4729 62.4729 62.4729 -143475.3438 -193066.6875)">
			<stop  offset="0" style="stop-color:#5A87AF"/>
			<stop  offset="0.55" style="stop-color:#5A87AF"/>
			<stop  offset="0.74" style="stop-color:#E75E24"/>
			<stop  offset="1" style="stop-color:#E75E24"/>
		</linearGradient>
		<polygon class="st1" points="-207.32,724.79 406.86,110.62 1021.03,724.79 406.86,1338.97 		"/>
	</g>
</g>
<g>
	<g>
		<path class="st2" d="M553.06,481.84c0-8.34-6.76-15.09-15.09-15.09c-8.34,0-15.09,6.76-15.09,15.09c0,8.34,6.76,15.09,15.09,15.09
			c0,0,0,0,0,0c8.28,0.05,15.04-6.62,15.09-14.9C553.06,481.97,553.06,481.9,553.06,481.84"/>
		<path class="st2" d="M604.53,481.84c-0.67-8.31-7.94-14.5-16.25-13.84c-7.38,0.59-13.24,6.45-13.84,13.84
			c-0.67,8.31,5.53,15.58,13.84,16.25c8.31,0.67,15.58-5.53,16.25-13.84C604.6,483.45,604.6,482.64,604.53,481.84"/>
		<path class="st2" d="M656.1,481.84c0-8.34-6.76-15.09-15.09-15.09c-8.34,0-15.09,6.76-15.09,15.09c0,8.34,6.76,15.09,15.09,15.09
			l0,0c8.28,0.05,15.04-6.62,15.09-14.9C656.1,481.97,656.1,481.9,656.1,481.84"/>
		<path class="st2" d="M707.56,481.84c0-8.34-6.76-15.09-15.09-15.09c-8.34,0-15.09,6.76-15.09,15.09s6.76,15.09,15.09,15.09
			c0.03,0,0.06,0,0.1,0c8.28,0,15-6.71,15-15C707.57,481.9,707.56,481.87,707.56,481.84"/>
		<path class="st2" d="M759.13,481.84c0-8.34-6.76-15.09-15.09-15.09c-8.34,0-15.09,6.76-15.09,15.09c0,8.34,6.76,15.09,15.09,15.09
			l0,0c8.28,0.05,15.04-6.62,15.09-14.9C759.13,481.97,759.13,481.9,759.13,481.84"/>
		<path class="st2" d="M810.6,481.84c0-8.34-6.76-15.09-15.09-15.09c-8.34,0-15.09,6.76-15.09,15.09c0,8.34,6.76,15.09,15.09,15.09
			l0,0c8.28,0.05,15.04-6.62,15.09-14.9C810.6,481.97,810.6,481.9,810.6,481.84"/>
		<path class="st2" d="M862.74,481.84c-0.67-8.31-7.94-14.5-16.25-13.84c-7.38,0.59-13.24,6.45-13.84,13.84
			c-0.67,8.31,5.53,15.58,13.84,16.25c8.31,0.67,15.58-5.53,16.25-13.84C862.81,483.45,862.81,482.64,862.74,481.84"/>
	</g>
</g>
<g>
	<defs>
		<path id="SVGID_4_" d="M471.41,434.44c0,8.34,6.76,15.09,15.1,15.08c8.34,0,15.09-6.76,15.08-15.1c0-8.14-6.47-14.82-14.61-15.08
			c-8.34,0-15.09,6.76-15.09,15.09 M523.46,434.44c0,8.34,6.76,15.09,15.09,15.09c8.34,0,15.09-6.76,15.09-15.09
			c0-8.34-6.76-15.09-15.09-15.09c0,0,0,0,0,0C530.22,419.34,523.46,426.1,523.46,434.44 M574.93,434.44
			c0,8.34,6.76,15.09,15.09,15.09c8.34,0,15.09-6.76,15.09-15.09c0-8.34-6.76-15.09-15.09-15.09c0,0,0,0,0,0
			c-8.32-0.48-15.46,5.88-15.94,14.2c-0.02,0.3-0.03,0.6-0.03,0.9 M625.53,434.44c0,8.34,6.76,15.09,15.09,15.09
			c8.34,0,15.09-6.76,15.09-15.09s-6.76-15.09-15.09-15.09l0,0C632.28,419.34,625.53,426.1,625.53,434.44 M677.09,434.44
			c0,8.34,6.76,15.09,15.09,15.09c8.34,0,15.09-6.76,15.09-15.09s-6.76-15.09-15.09-15.09l0,0
			C683.85,419.34,677.09,426.1,677.09,434.44 M728.56,434.44c0,8.34,6.76,15.09,15.09,15.09c8.34,0,15.09-6.76,15.09-15.09
			s-6.76-15.09-15.09-15.09l0,0c-8.22,0.16-14.8,6.87-14.8,15.09 M780.41,434.44c0,8.34,6.76,15.09,15.09,15.09
			c8.34,0,15.09-6.76,15.09-15.09s-6.76-15.09-15.09-15.09c-0.03,0-0.06,0-0.1,0c-8.28,0-15,6.71-15,15
			C780.41,434.37,780.41,434.4,780.41,434.44 M419.85,387.03c0,8.34,6.76,15.09,15.09,15.09c8.34,0,15.09-6.76,15.09-15.09
			s-6.76-15.09-15.09-15.09l0,0C426.6,371.94,419.85,378.69,419.85,387.03 M471.31,387.03c0.01,8.34,6.77,15.09,15.1,15.08
			s15.09-6.77,15.08-15.1c-0.01-8.11-6.41-14.76-14.51-15.07c-8.34,0-15.09,6.76-15.09,15.09 M523.46,387.03
			c0,8.34,6.76,15.09,15.09,15.09c8.34,0,15.09-6.76,15.09-15.09s-6.76-15.09-15.09-15.09l0,0
			C530.22,371.94,523.46,378.7,523.46,387.03 M574.93,387.03c0,8.34,6.76,15.09,15.09,15.09c8.34,0,15.09-6.76,15.09-15.09
			s-6.76-15.09-15.09-15.09l0,0c-8.32-0.48-15.46,5.88-15.94,14.2c-0.02,0.3-0.03,0.6-0.03,0.9 M625.53,387.03
			c0,8.34,6.76,15.09,15.09,15.09c8.34,0,15.09-6.76,15.09-15.09s-6.76-15.09-15.09-15.09l0,0
			C632.28,371.94,625.53,378.7,625.53,387.03 M677.09,387.03c0,8.34,6.76,15.09,15.09,15.09c8.34,0,15.09-6.76,15.09-15.09
			s-6.76-15.09-15.09-15.09l0,0C683.85,371.94,677.09,378.7,677.09,387.03 M728.56,387.03c0,8.34,6.76,15.09,15.09,15.09
			c8.34,0,15.09-6.76,15.09-15.09s-6.76-15.09-15.09-15.09l0,0c-8.22,0.16-14.8,6.87-14.8,15.09 M345.16,339.92
			c-0.05,8.33,6.66,15.14,15,15.19c8.34,0.05,15.14-6.66,15.19-15s-6.66-15.14-15-15.19c-0.03,0-0.06,0-0.1,0
			C351.95,324.92,345.21,331.62,345.16,339.92 M419.94,339.92c-0.67,8.31,5.53,15.58,13.84,16.25c8.31,0.67,15.58-5.53,16.25-13.84
			c0.06-0.8,0.06-1.61,0-2.41c-0.67-8.31-7.94-14.5-16.25-13.84C426.4,326.67,420.53,332.53,419.94,339.92 M471.41,339.92
			c-0.67,8.31,5.53,15.58,13.84,16.25c8.31,0.67,15.58-5.53,16.25-13.84c0.06-0.8,0.06-1.61,0-2.41
			c-0.67-8.31-7.94-14.5-16.25-13.84C477.86,326.67,472,332.53,471.41,339.92 M522.98,339.92c-0.05,8.33,6.66,15.14,15,15.19
			c8.34,0.05,15.14-6.66,15.19-15c0.05-8.34-6.66-15.14-15-15.19c-0.03,0-0.06,0-0.1,0C529.77,324.92,523.03,331.62,522.98,339.92
			 M574.06,339.92c-0.67,8.31,5.53,15.58,13.84,16.25c8.31,0.67,15.58-5.53,16.25-13.84c0.06-0.8,0.06-1.61,0-2.41
			c-0.67-8.31-7.94-14.5-16.25-13.84C580.51,326.67,574.65,332.53,574.06,339.92 M625.53,339.92c-0.05,8.33,6.66,15.14,15,15.19
			c8.33,0.05,15.14-6.66,15.19-15c0.05-8.34-6.66-15.14-15-15.19c-0.03,0-0.06,0-0.1,0c-8.15,0.21-14.66,6.85-14.71,15
			 M677.48,339.92c-0.05,8.33,6.66,15.14,15,15.19c8.33,0.05,15.14-6.66,15.19-15c0.05-8.34-6.66-15.14-15-15.19
			c-0.03,0-0.06,0-0.1,0C684.27,324.92,677.53,331.62,677.48,339.92 M278.69,293.67c0,8.34,6.76,15.09,15.1,15.09
			c8.34,0,15.09-6.76,15.09-15.1s-6.76-15.09-15.1-15.09c-0.1,0-0.19,0-0.29,0c-8.28-0.05-15.04,6.62-15.09,14.9
			c0,0.06,0,0.13,0,0.19 M368.18,292.12c0.67,8.31,7.94,14.5,16.25,13.84c7.38-0.59,13.24-6.45,13.84-13.84
			c0.67-8.31-5.53-15.58-13.84-16.25c-8.31-0.67-15.58,5.53-16.25,13.84C368.12,290.51,368.12,291.32,368.18,292.12 M419.65,292.12
			c0,8.34,6.76,15.09,15.09,15.09c8.34,0,15.09-6.76,15.09-15.09s-6.76-15.09-15.09-15.09l0,0c-8.28-0.05-15.04,6.62-15.09,14.9
			C419.65,291.99,419.65,292.06,419.65,292.12 M471.12,292.12c0.01,8.34,6.78,15.08,15.11,15.07c8.34-0.01,15.08-6.78,15.07-15.11
			c-0.01-8.03-6.3-14.64-14.32-15.05c-8.28-0.05-15.04,6.62-15.09,14.9c0,0.06,0,0.13,0,0.19 M523.46,292.12
			c0,8.34,6.76,15.09,15.09,15.09c8.34,0,15.09-6.76,15.09-15.09s-6.76-15.09-15.09-15.09l0,0c-8.28-0.05-15.04,6.62-15.09,14.9
			C523.46,291.99,523.46,292.06,523.46,292.12 M574.93,292.12c0,8.34,6.76,15.09,15.09,15.09c8.34,0,15.09-6.76,15.09-15.09
			s-6.76-15.09-15.09-15.09l0,0c-8.26-0.53-15.4,5.73-15.93,14c-0.02,0.36-0.03,0.73-0.03,1.1 M625.53,292.12
			c0,8.34,6.76,15.09,15.09,15.09c8.34,0,15.09-6.76,15.09-15.09s-6.76-15.09-15.09-15.09l0,0c-8.28-0.05-15.04,6.62-15.09,14.9
			C625.52,291.99,625.52,292.06,625.53,292.12 M164.54,249.65c0,8.34,6.76,15.09,15.09,15.09c8.34,0,15.09-6.76,15.09-15.09
			s-6.76-15.09-15.09-15.09l0,0c-8.28-0.05-15.04,6.62-15.09,14.9C164.53,249.52,164.53,249.59,164.54,249.65 M265.44,244.72
			c0.67,8.31,7.94,14.5,16.25,13.84c7.38-0.59,13.24-6.45,13.84-13.84c0.67-8.31-5.53-15.58-13.84-16.25
			c-8.31-0.67-15.58,5.53-16.25,13.84C265.38,243.11,265.38,243.91,265.44,244.72 M316.91,244.72c0,8.34,6.76,15.09,15.09,15.09
			c8.34,0,15.09-6.76,15.09-15.09c0-8.26-6.64-14.98-14.9-15.09c-8.28-0.05-15.04,6.62-15.09,14.9c0,0.06,0,0.13,0,0.19
			 M368.67,244.72c0.67,8.31,7.94,14.5,16.25,13.84c7.38-0.59,13.24-6.45,13.84-13.84c0.67-8.31-5.53-15.58-13.84-16.25
			c-8.31-0.67-15.58,5.53-16.25,13.84C368.6,243.11,368.6,243.91,368.67,244.72 M420.14,244.72c0,8.34,6.76,15.09,15.09,15.09
			c8.34,0,15.09-6.76,15.09-15.09s-6.76-15.09-15.09-15.09l0,0c-8.28-0.05-15.04,6.62-15.09,14.9
			C420.14,244.59,420.14,244.65,420.14,244.72 M471.6,244.72c0,8.34,6.76,15.09,15.1,15.09s15.09-6.76,15.09-15.1
			c0-8.22-6.58-14.93-14.8-15.09c-8.28-0.05-15.04,6.62-15.09,14.9c0,0.06,0,0.13,0,0.19 M523.46,244.72
			c0,8.34,6.76,15.09,15.09,15.09c8.34,0,15.09-6.76,15.09-15.09s-6.76-15.09-15.09-15.09l0,0c-8.28-0.05-15.04,6.62-15.09,14.9
			C523.46,244.59,523.46,244.65,523.46,244.72 M574.93,244.72c0,8.34,6.76,15.09,15.09,15.09c8.34,0,15.09-6.76,15.09-15.09
			s-6.76-15.09-15.09-15.09l0,0c-8.26-0.53-15.4,5.73-15.93,14c-0.02,0.36-0.03,0.73-0.03,1.1 M213.88,197.22
			c-0.05,8.34,6.66,15.14,15,15.19c8.34,0.05,15.14-6.66,15.19-15c0.05-8.34-6.66-15.14-15-15.19c-0.03,0-0.06,0-0.1,0
			C220.67,182.22,213.93,188.92,213.88,197.22 M316.91,197.22c-0.05,8.34,6.66,15.13,15,15.19c8.34,0.05,15.13-6.66,15.19-15
			c0.05-8.3-6.6-15.08-14.9-15.19c-8.3,0-15.04,6.7-15.09,15 M368.67,197.22c-0.05,8.34,6.66,15.14,15,15.19
			c8.34,0.05,15.14-6.66,15.19-15c0.05-8.34-6.66-15.14-15-15.19c-0.06,0-0.13,0-0.19,0C375.38,182.22,368.67,188.93,368.67,197.22
			C368.67,197.22,368.67,197.22,368.67,197.22 M471.6,197.22c-0.05,8.34,6.66,15.13,15,15.19c8.34,0.05,15.13-6.66,15.19-15
			c0.05-8.26-6.54-15.02-14.8-15.18c-8.3,0-15.04,6.7-15.09,15 M523.46,197.22c-0.05,8.34,6.66,15.14,15,15.19
			c8.34,0.05,15.14-6.66,15.19-15s-6.66-15.14-15-15.19c-0.03,0-0.06,0-0.1,0C530.25,182.22,523.51,188.92,523.46,197.22
			 M419.94,182.22c0,8.34,6.76,15.09,15.09,15.09c8.34,0,15.09-6.76,15.09-15.09s-6.76-15.09-15.09-15.09l0,0
			c-8.28-0.05-15.04,6.62-15.09,14.9C419.94,182.09,419.94,182.16,419.94,182.22 M107.55,167.52c-0.67,8.31,5.53,15.58,13.84,16.25
			c8.31,0.67,15.58-5.53,16.25-13.84c0.06-0.8,0.06-1.61,0-2.41c-0.67-8.31-7.94-14.5-16.25-13.84
			C114.01,154.27,108.14,160.13,107.55,167.52 M213.97,149.81c0,8.34,6.76,15.09,15.09,15.09c8.34,0,15.09-6.76,15.09-15.09
			s-6.76-15.09-15.09-15.09l0,0C220.73,134.72,213.97,141.48,213.97,149.81 M265.54,149.81c0,8.34,6.76,15.09,15.09,15.09
			s15.09-6.76,15.09-15.09c0-8.34-6.76-15.09-15.09-15.09c-0.03,0-0.06,0-0.1,0c-8.28,0-15,6.71-15,15
			C265.54,149.75,265.54,149.78,265.54,149.81 M317.01,149.81c0,8.34,6.76,15.09,15.09,15.09c8.34,0,15.09-6.76,15.09-15.09
			c0-8.3-6.7-15.04-15-15.09c-8.34,0-15.09,6.76-15.09,15.09 M368.67,149.81c0,8.34,6.76,15.09,15.09,15.09s15.09-6.76,15.09-15.09
			c0-8.34-6.76-15.09-15.09-15.09c-0.03,0-0.06,0-0.1,0c-8.28,0-15,6.71-15,15C368.67,149.75,368.67,149.78,368.67,149.81
			 M471.6,149.81c0,8.34,6.76,15.09,15.1,15.09c8.34,0,15.09-6.76,15.09-15.1c0-8.22-6.58-14.93-14.8-15.09
			c-8.34,0-15.09,6.76-15.09,15.09 M422.36,107.73c0.67,8.31,7.94,14.5,16.25,13.84c7.38-0.59,13.24-6.45,13.84-13.84
			c0.67-8.31-5.53-15.58-13.84-16.25c-8.31-0.67-15.58,5.53-16.25,13.84C422.3,106.12,422.3,106.92,422.36,107.73 M316.91,102.7
			c0.16,8.33,7.05,14.96,15.38,14.8c8.33-0.16,14.96-7.05,14.8-15.38c-0.16-8.14-6.75-14.69-14.89-14.8
			c-8.28-0.05-15.04,6.62-15.09,14.9c0,0.06,0,0.13,0,0.19 M368.67,102.41c0.67,8.31,7.94,14.5,16.25,13.84
			c7.38-0.59,13.24-6.45,13.84-13.84c0.67-8.31-5.53-15.58-13.84-16.25c-8.31-0.67-15.58,5.53-16.25,13.84
			C368.6,100.8,368.6,101.6,368.67,102.41 M178.08,80.25c0,8.34,6.76,15.09,15.1,15.09s15.09-6.76,15.09-15.09
			c0-8.34-6.76-15.09-15.1-15.09c-0.1,0-0.19,0-0.29,0c-8.3,0.05-15,6.79-15,15.09 M239.9,60.9c0,8.34,6.76,15.09,15.09,15.09
			c8.34,0,15.09-6.76,15.09-15.09c0-8.34-6.76-15.09-15.09-15.09c-0.06,0-0.13,0-0.19,0c-8.34,0-15.09,6.76-15.09,15.09
			 M38.96,53.84c-0.05,8.34,6.66,15.14,15,15.19c8.34,0.05,15.14-6.66,15.19-15c0.05-8.34-6.66-15.14-15-15.19
			c-0.06,0-0.13,0-0.19,0C45.67,38.85,38.96,45.56,38.96,53.84L38.96,53.84 M406.59,43.39c0,8.34,6.76,15.09,15.09,15.09
			c8.34,0,15.09-6.76,15.09-15.09c0-8.34-6.76-15.09-15.09-15.09l0,0C413.35,28.3,406.59,35.06,406.59,43.39 M116.36,13.88
			c-0.67,8.31,5.53,15.58,13.84,16.25c8.31,0.67,15.58-5.53,16.25-13.84c0.06-0.8,0.06-1.61,0-2.41
			c-0.67-8.31-7.94-14.5-16.25-13.84C122.81,0.64,116.95,6.5,116.36,13.88"/>
	</defs>
	<clipPath id="SVGID_5_">
		<use xlink:href="#SVGID_4_"  style="overflow:visible;"/>
	</clipPath>
	<g class="st3">
		
			<linearGradient id="SVGID_6_" gradientUnits="userSpaceOnUse" x1="-398.2126" y1="2686.5569" x2="-388.5381" y2="2686.5569" gradientTransform="matrix(60.1819 60.1819 -60.1819 60.1819 185789.625 -137774.9844)">
			<stop  offset="0" style="stop-color:#5A87AF"/>
			<stop  offset="0.55" style="stop-color:#5A87AF"/>
			<stop  offset="0.74" style="stop-color:#E75E24"/>
			<stop  offset="1" style="stop-color:#E75E24"/>
		</linearGradient>
		<polygon class="st4" points="-186.18,224.23 424.85,-386.8 1035.88,224.23 424.85,835.25 		"/>
	</g>
</g>
<polygon class="st5" points="816.69,761.53 775.58,820.93 831.4,887.88 792.02,887.88 741.91,828.67 741.91,887.88 710.47,887.88 
	710.47,761.53 741.91,761.53 741.91,818.42 782.16,761.53 "/>
<g>
	<g>
		<path class="st5" d="M877.26,784.94v29.02h16.64c4.5,0.25,8.95-1.09,12.58-3.77c3.16-2.6,4.89-6.56,4.64-10.64
			c0-9.67-6-14.32-17.99-14.32L877.26,784.94z M845.81,761.82h56.4c10.92-0.48,21.61,3.3,29.8,10.55
			c7.39,6.5,11.59,15.89,11.51,25.73c0.06,13.85-8.63,26.22-21.67,30.86c8.44,5.56,14.81,13.76,18.09,23.32
			c5.71,12.67,11.13,24.57,16.45,35.8h-34.05c-2.13-4.16-5.71-12.09-10.84-23.7c-2.99-8.25-7.45-15.88-13.16-22.54
			c-3.09-3.15-7.3-4.95-11.71-5.03h-9v51.27H846.2L845.81,761.82z"/>
	</g>
</g>
<polygon class="st5" points="1066.2,864.66 1066.2,887.88 973.13,887.88 973.13,761.53 1064.94,761.53 1064.94,784.65 
	1004.57,784.65 1004.57,811.16 1062.14,811.16 1062.14,834.28 1004.57,834.28 1004.57,864.66 "/>
<g>
	<g>
		<path class="st5" d="M1124.63,834.86v29.8h17.7c6.23,0.47,12.48-0.74,18.09-3.48c3.89-2.74,6-7.36,5.51-12.09
			c0.11-4.14-1.85-8.06-5.22-10.45c-4.16-2.7-9.07-4.02-14.03-3.77H1124.63z M1124.63,784.65v26.99h16.45
			c4.31,0.26,8.56-1.12,11.9-3.87c2.72-2.47,4.24-6,4.16-9.67c0.14-3.69-1.39-7.24-4.16-9.67c-3.37-2.68-7.6-4.02-11.9-3.77H1124.63
			z M1093.19,761.53h54.56c11.06-0.59,21.95,2.85,30.67,9.67c6.98,5.29,11.12,13.5,11.22,22.25c-0.13,11.12-6.97,21.07-17.32,25.15
			c7.8,1.72,14.81,5.97,19.93,12.09c4.63,5.75,7.09,12.94,6.97,20.32c0.34,10.16-3.8,19.96-11.32,26.8
			c-9.41,7.48-21.29,11.14-33.28,10.25h-61.43V761.53z"/>
	</g>
</g>
<polygon class="st5" points="1316.86,864.66 1316.86,887.88 1223.7,887.88 1223.7,761.53 1315.61,761.53 1315.61,784.65 
	1255.14,784.65 1255.14,811.16 1312.8,811.16 1312.8,834.28 1255.14,834.28 1255.14,864.66 "/>
<g>
	<g>
		<path class="st5" d="M1375.2,784.94v29.02h16.64c4.54,0.27,9.02-1.07,12.67-3.77c3.16-2.6,4.89-6.56,4.64-10.64
			c0-9.67-6-14.32-17.99-14.32L1375.2,784.94z M1343.76,761.82h56.4c10.96-0.5,21.67,3.29,29.89,10.55
			c7.36,6.51,11.53,15.91,11.42,25.73c0.09,13.85-8.61,26.24-21.67,30.86c8.5,5.5,14.87,13.72,18.09,23.32
			c5.71,12.67,11.22,24.57,16.54,35.8h-34.54c-2.03-4.16-5.61-12.09-10.74-23.7c-2.99-8.25-7.45-15.88-13.16-22.54
			c-3.1-3.14-7.3-4.94-11.71-5.03h-9.09v51.27h-31.44L1343.76,761.82z"/>
	</g>
</g>
</svg>
